
        <svg xmlns="http://www.w3.org/2000/svg" xmlns:xlink="http://www.w3.org/1999/xlink" version="1.1" width="3187.5" height="1125" viewBox="0 0 3187.5 1125">
			
			<g transform="scale(9.375) translate(10, 10)">
				<defs id="SvgjsDefs1045"><linearGradient id="SvgjsLinearGradient1050"><stop id="SvgjsStop1051" stop-color="#8f5e25" offset="0"/><stop id="SvgjsStop1052" stop-color="#fbf4a1" offset="0.5"/><stop id="SvgjsStop1053" stop-color="#8f5e25" offset="1"/></linearGradient><linearGradient id="SvgjsLinearGradient1054"><stop id="SvgjsStop1055" stop-color="#8f5e25" offset="0"/><stop id="SvgjsStop1056" stop-color="#fbf4a1" offset="0.5"/><stop id="SvgjsStop1057" stop-color="#8f5e25" offset="1"/></linearGradient></defs><g id="SvgjsG1046" featureKey="UFHKJ9-0" transform="matrix(2,0,0,2,0,0)" fill="#fff"><defs xmlns="http://www.w3.org/2000/svg"/><g xmlns="http://www.w3.org/2000/svg"><path class="fil0" d="M13.0424 15.2804l23.9152 0c0.213024,0 0.385728,0.172705 0.385728,0.385728l0 15.4745c0,0.213024 -0.172705,0.385732 -0.385728,0.385732l-23.9152 0c-0.213024,0 -0.385728,-0.172709 -0.385728,-0.385732l0 -15.4745c0,-0.213024 0.172705,-0.385728 0.385728,-0.385728zm1.22146 1.60719l0 13.0316 21.4723 0 0 -13.0316 -21.4723 0z" style="fill: url(#SvgjsLinearGradient1050); fill-rule: nonzero;"/><polygon class="fil0" points="30.5708,34.7908 19.4292,34.7908 19.4292,33.6759 30.5708,33.6759 " style="fill: url(#SvgjsLinearGradient1050); fill-rule: nonzero;"/><polygon class="fil0" points="17.3954,23.9155 17.3954,22.9824 22.7914,20.7045 22.7914,21.6983 18.5126,23.4546 22.7914,25.2261 22.7914,26.2218 " style="fill: url(#SvgjsLinearGradient1050); fill-rule: nonzero;"/><polygon class="fil0" points="23.4192,27.6158 25.7805,19.1929 26.5809,19.1929 24.2252,27.6158 " style="fill: url(#SvgjsLinearGradient1050); fill-rule: nonzero;"/><polygon class="fil0" points="32.5989,23.9155 27.203,26.2218 27.203,25.2261 31.4761,23.4546 27.203,21.6983 27.203,20.7045 32.5989,22.9824 " style="fill: url(#SvgjsLinearGradient1050); fill-rule: nonzero;"/><polygon class="fil1" points="22.9616,31.1407 27.0384,31.1407 28.1635,33.801 21.8365,33.801 " style="fill: url(#SvgjsLinearGradient1050);"/></g><path xmlns="http://www.w3.org/2000/svg" class="fil0" d="M25.3857 0.226008l10.4391 6.027 -0.000759843 0.00131102 10.4369 6.02567 0.388744 0.224449 0 0.441539 0 12.054 0 12.054 0 0.441539 -0.388744 0.224449 -10.4369 6.02567 0.000759843 0.00131102 -10.4391 6.027 -0.385728 0.222685 -0.385728 -0.222685 -10.4391 -6.027 0.000759843 -0.00131102 -10.4369 -6.02567 -0.388744 -0.224449 0 -0.441539 0 -12.054 0 -12.054 0 -0.441539 0.388744 -0.224449 10.4369 -6.02567 -0.000759843 -0.00131102 10.4391 -6.027 0.385728 -0.222685 0.385728 0.222685zm-0.385748 2.4497l-7.65976 4.42235 0.000755906 0.00133071 -11.6762 6.74124 0 22.3187 11.6762 6.74124 -0.000755906 0.00131102 7.6598 4.42237 7.65976 -4.42235 -0.000755906 -0.00133071 11.6762 -6.74124 0 -22.3187 -11.6762 -6.74124 0.000755906 -0.00131102 -7.6598 -4.42237z" style="fill: url(#SvgjsLinearGradient1050); fill-rule: nonzero;"/><rect xmlns="http://www.w3.org/2000/svg" class="fil2" width="50" height="50" style="fill: none;"/></g><g id="SvgjsG1047" featureKey="XAPJzK-0" transform="matrix(1.4386467933654785,0,0,1.4386467933654785,118.3309449549018,30.266346342971143)" fill="#fff"><path d="M3.64 20 l-2.48 0 l0 -12.54 l2.48 0 l0 12.54 z M9.42 9.94 c-0.6 0 -1.1 0.5 -1.1 1.1 l0 1.44 l10.06 0 l0 3.94 c0 1.98 -1.6 3.58 -3.58 3.58 l-8.96 0 l0 -2.48 l8.96 0 c0.6 0 1.1 -0.5 1.1 -1.1 l0 -1.44 l-10.06 0 l0 -3.94 c0 -1.98 1.6 -3.58 3.58 -3.58 l8.96 0 l0 2.48 l-8.96 0 z M31.42 7.460000000000001 l0 2.48 l-4.44 0 l0 10.06 l-2.48 0 l0 -10.06 l-4.44 0 l0 -2.48 l11.36 0 z M42.72 7.460000000000001 l2.7 0 l-5.34 12.54 l0 0 l-2.7 0 l0 0 l-5.32 -12.54 l2.7 0 l3.98 9.36 z M55.18 7.460000000000001 c1.98 0 3.58 1.6 3.58 3.58 l0 8.96 l-2.48 0 l0 -5.02 l-7.58 0 l0 5.02 l-2.48 0 l0 -8.96 c0 -1.98 1.6 -3.58 3.58 -3.58 l5.38 0 z M48.7 12.48 l7.58 0 l0 -1.44 c0 -0.6 -0.5 -1.1 -1.1 -1.1 l-5.38 0 c-0.6 0 -1.1 0.5 -1.1 1.1 l0 1.44 z M73.38 20 l-2.48 0 l0 -8.96 c0 -0.6 -0.5 -1.1 -1.1 -1.1 l-5.38 0 c-0.6 0 -1.1 0.5 -1.1 1.1 l0 8.96 l-2.48 0 l0 -8.96 c0 -1.98 1.6 -3.58 3.58 -3.58 l5.38 0 c1.98 0 3.58 1.6 3.58 3.58 l0 8.96 z M92.64 12.48 l2.48 0 l0 4.08 l0 0 c-0.08 1.92 -1.64 3.44 -3.58 3.44 l-5.38 0 c-1.98 0 -3.58 -1.6 -3.58 -3.58 l0 -5.38 c0 -1.98 1.6 -3.58 3.58 -3.58 l7.72 0 l0 2.48 l-7.72 0 c-0.6 0 -1.1 0.5 -1.1 1.1 l0 5.38 c0 0.6 0.5 1.1 1.1 1.1 l5.38 0 c0.6 0 1.1 -0.5 1.1 -1.1 l0 -3.94 z M106.06 7.460000000000001 c1.98 0 3.58 1.6 3.58 3.58 l0 8.96 l-2.48 0 l0 -5.02 l-7.58 0 l0 5.02 l-2.48 0 l0 -8.96 c0 -1.98 1.6 -3.58 3.58 -3.58 l5.38 0 z M99.58 12.48 l7.58 0 l0 -1.44 c0 -0.6 -0.5 -1.1 -1.1 -1.1 l-5.38 0 c-0.6 0 -1.1 0.5 -1.1 1.1 l0 1.44 z M120.60000000000001 14.96 l2.48 0 l0 1.46 c0 1.98 -1.6 3.58 -3.58 3.58 l-4.2 0 c-1.98 0 -3.58 -1.6 -3.58 -3.58 l0 -8.96 l2.48 0 l0 8.96 c0 0.6 0.5 1.1 1.1 1.1 l4.2 0 c0.6 0 1.1 -0.5 1.1 -1.1 l0 -1.46 z M128.22 9.94 c-0.6 0 -1.1 0.5 -1.1 1.1 l0 1.44 l7.58 0 l0 2.5 l-7.58 0 l0 0.2 l0 1.24 l0 3.58 l-2.48 0 l0 -3.58 l0 -5.38 c0 -1.98 1.6 -3.58 3.58 -3.58 l7.72 0 l0 2.48 l-7.72 0 z M140.18 20 l-2.48 0 l0 -12.54 l2.48 0 l0 12.54 z"/></g>
			</g>
		</svg>
	