<svg width="1000" height="1000" xmlns="http://www.w3.org/2000/svg" version="1.1">
 <g>
  <title>Layer 1</title>
  <defs id="SvgjsDefs1045">
   <linearGradient id="SvgjsLinearGradient1050">
    <stop offset="0" stop-color="#8f5e25" id="SvgjsStop1051"/>
    <stop offset="0.5" stop-color="#fbf4a1" id="SvgjsStop1052"/>
    <stop offset="1" stop-color="#8f5e25" id="SvgjsStop1053"/>
   </linearGradient>
  </defs>
  <g fill="url(#SvgjsLinearGradient1050)" transform="matrix(19.8442, 0, 0, 19.8939, 99.114, 99.4236)" featureKey="UFHKJ9-0" id="SvgjsG1046">

   <g id="svg_2" xmlns="http://www.w3.org/2000/svg">
    <path id="svg_3" fill-rule=" nonzero" fill=" url(#SvgjsLinearGradient1050)" d="m8.27332,10.45389l23.9152,0c0.21302,0 0.38573,0.17271 0.38573,0.38573l0,15.4745c0,0.21302 -0.17271,0.38573 -0.38573,0.38573l-23.9152,0c-0.21302,0 -0.38573,-0.17271 -0.38573,-0.38573l0,-15.4745c0,-0.21303 0.17271,-0.38573 0.38573,-0.38573zm1.22146,1.60719l0,13.0316l21.4723,0l0,-13.0316l-21.4723,0z" class="fil0"/>
    <polygon id="svg_4" fill-rule=" nonzero" fill=" url(#SvgjsLinearGradient1050)" points="25.801714181900024,29.964284420013428 14.66011643409729,29.964284420013428 14.66011643409729,28.849385738372803 25.801714181900024,28.849385738372803 " class="fil0"/>
    <polygon id="svg_5" fill-rule=" nonzero" fill=" url(#SvgjsLinearGradient1050)" points="12.626314401626587,19.08898687362671 12.626314401626587,18.15588903427124 18.022310495376587,15.877988338470459 18.022310495376587,16.871785640716553 13.74351716041565,18.628087520599365 18.022310495376587,20.399587154388428 18.022310495376587,21.395284175872803 " class="fil0"/>
    <polygon id="svg_6" fill-rule=" nonzero" fill=" url(#SvgjsLinearGradient1050)" points="18.650110483169556,22.789288997650146 21.01140809059143,14.366384029388428 21.811807870864868,14.366384029388428 19.45611023902893,22.789288997650146 " class="fil0"/>
    <polygon id="svg_7" fill-rule=" nonzero" fill=" url(#SvgjsLinearGradient1050)" points="27.829813241958618,19.08898687362671 22.433908700942993,21.395284175872803 22.433908700942993,20.399587154388428 26.707010507583618,18.628087520599365 22.433908700942993,16.871785640716553 22.433908700942993,15.877988338470459 27.829813241958618,18.15588903427124 " class="fil0"/>
    <polygon id="svg_8" fill=" url(#SvgjsLinearGradient1050)" points="18.192514657974243,26.314183712005615 22.269312143325806,26.314183712005615 23.394411325454712,28.97448492050171 17.067407846450806,28.97448492050171 " class="fil1"/>
   </g>
   <path id="svg_9" fill-rule=" nonzero" fill=" url(#SvgjsLinearGradient1050)" d="m20.61662,-4.6005l10.4391,6.027l-0.00076,0.00131l10.4369,6.02567l0.38874,0.22445l0,0.44154l0,12.054l0,12.054l0,0.44154l-0.38874,0.22445l-10.4369,6.02567l0.00076,0.00131l-10.4391,6.027l-0.38573,0.22268l-0.38573,-0.22268l-10.4391,-6.027l0.00076,-0.00131l-10.4369,-6.02567l-0.38874,-0.22445l0,-0.44154l0,-12.054l0,-12.054l0,-0.44154l0.38874,-0.22445l10.4369,-6.02567l-0.00076,-0.00131l10.4391,-6.027l0.38573,-0.22269l0.38573,0.22269zm-0.38575,2.4497l-7.65976,4.42235l0.00076,0.00133l-11.6762,6.74124l0,22.3187l11.6762,6.74124l-0.00076,0.00131l7.6598,4.42237l7.65976,-4.42235l-0.00075,-0.00133l11.6762,-6.74124l0,-22.3187l-11.6762,-6.74124l0.00075,-0.00131l-7.6598,-4.42237z" class="fil0" xmlns="http://www.w3.org/2000/svg"/>
   <rect x="-4.76908" y="-4.82651" id="svg_10" fill=" none" height="50" width="50" class="fil2" xmlns="http://www.w3.org/2000/svg"/>
  </g>
 </g>
</svg>